<?xml version="1.0" encoding="utf-8"?>
<!-- Generator: Adobe Illustrator 23.0.4, SVG Export Plug-In . SVG Version: 6.00 Build 0)  -->
<svg version="1.1" id="Layer_1" xmlns="http://www.w3.org/2000/svg" xmlns:xlink="http://www.w3.org/1999/xlink" x="0px" y="0px"
	 viewBox="0 0 20 20" style="enable-background:new 0 0 20 20;" xml:space="preserve">
<style type="text/css">
	.st0{fill:#FFFFFF;}
</style>
<path class="st0" d="M19.5,15.4l-4-2.7c-0.5-0.3-1.2-0.2-1.6,0.3l-1.2,1.5c-0.2,0.2-0.4,0.3-0.6,0.1l-0.2-0.1
	c-0.7-0.4-1.7-0.9-3.5-2.8S5.9,8.9,5.5,8.2L5.4,8C5.2,7.8,5.3,7.5,5.5,7.3L7,6.2c0.5-0.4,0.6-1.1,0.3-1.6l-2.7-4
	C4.2,0,3.5-0.2,3,0.2l-1.7,1C0.8,1.5,0.4,2,0.2,2.6c-0.6,2.2-0.2,6.1,5.5,11.7c4.5,4.5,7.8,5.7,10.1,5.7c0.5,0,1.1-0.1,1.6-0.2
	c0.6-0.2,1.1-0.6,1.4-1.1l1-1.7C20.2,16.5,20,15.8,19.5,15.4z M19.3,16.7l-1,1.7c-0.2,0.4-0.6,0.7-1,0.8c-2.1,0.6-5.6,0.1-11.1-5.3
	s-5.9-9-5.3-11.1C1,2.3,1.3,2,1.6,1.8l1.7-1C3.6,0.6,3.9,0.7,4,0.9l1.5,2.2l1.2,1.8c0.1,0.2,0.1,0.5-0.1,0.7L5.1,6.8
	c-0.5,0.4-0.6,1-0.3,1.5l0.1,0.2c0.4,0.8,1,1.8,2.9,3.7c1.9,1.9,2.9,2.5,3.7,2.9l0.2,0.1c0.5,0.3,1.1,0.2,1.5-0.3l1.2-1.5
	c0.2-0.2,0.5-0.3,0.7-0.1l4,2.7C19.3,16.1,19.4,16.4,19.3,16.7z"/>
</svg>
