<?xml version="1.0" encoding="utf-8"?>
<!-- Generator: Adobe Illustrator 23.0.1, SVG Export Plug-In . SVG Version: 6.00 Build 0)  -->
<svg version="1.1" id="Layer_1" xmlns="http://www.w3.org/2000/svg" xmlns:xlink="http://www.w3.org/1999/xlink" x="0px" y="0px"
	 viewBox="0 0 841.9 250.1" style="enable-background:new 0 0 841.9 250.1;" xml:space="preserve">
<style type="text/css">
	.st0{fill:none;stroke:#FBF8F4;stroke-width:1.3813;stroke-miterlimit:10;}
	.st1{fill:#FBF8F4;}
</style>
<g>
	<line class="st0" x1="312.6" y1="1.2" x2="312.6" y2="248.6"/>
	<g>
		<g>
			<path class="st1" d="M392.3,1.2v69.7h-13.9l-11.7-27l-6.3-17l-0.3,0.3c1.1,8.8,1.8,21.8,1.8,29.5v14.1H348V1.2h13.9l13.2,30.2
				c1.7,4.4,3.3,9,5,13.3l0.3-0.3c-1.2-8.8-2-20.7-2-27.2v-16C378.4,1.2,392.3,1.2,392.3,1.2z"/>
			<path class="st1" d="M428,45.9l-1.6-8c-0.9-5-2.1-13.4-2.8-19.1h-0.4c-0.7,5.7-1.8,14.1-2.8,19.1l-1.6,8H428z M430.8,59.3h-14.7
				l-2.3,11.5h-14.6l16.7-69.7H431l16.7,69.7h-14.6L430.8,59.3z"/>
			<polygon class="st1" points="445.6,1.2 445.6,14.6 459.2,14.6 459.2,70.8 473.8,70.8 473.8,14.6 487.4,14.6 487.4,1.2 			"/>
			<rect x="494.8" y="1.2" class="st1" width="14.1" height="69.6"/>
			<path class="st1" d="M548.8,48.3V23.8c0-6.6-2.7-10-8-10s-8,3.5-8,10v24.5c0,6.6,2.7,10,8,10S548.8,54.8,548.8,48.3 M518.2,48.3
				V23.8c0-14.9,8.5-23.8,22.6-23.8s22.6,8.9,22.6,23.8v24.5c0,14.9-8.5,23.8-22.6,23.8S518.2,63.2,518.2,48.3"/>
			<path class="st1" d="M617,1.2v69.7h-13.9l-11.7-27l-6.3-17l-0.3,0.3c1.1,8.8,1.8,21.8,1.8,29.5v14.1h-13.9V1.2h13.9l13.2,30.2
				c1.7,4.4,3.3,9,5,13.3l0.3-0.3c-1.2-8.8-2-20.7-2-27.2v-16C603.1,1.2,617,1.2,617,1.2z"/>
			<path class="st1" d="M652.7,45.9l-1.6-8c-0.9-5-2.1-13.4-2.8-19.1h-0.4c-0.7,5.7-1.8,14.1-2.8,19.1l-1.6,8H652.7z M655.5,59.3
				h-14.7l-2.3,11.5h-14.6l16.7-69.7h15.1l16.7,69.7h-14.6L655.5,59.3z"/>
			<polygon class="st1" points="679.3,1.2 679.3,70.8 714.1,70.8 714.1,57.4 693.4,57.4 693.4,1.2 			"/>
		</g>
		<g>
			<path class="st1" d="M362,122.3h5.9c5,0,7.7-3.4,7.7-9.7c0-6.4-2.7-9.8-7.7-9.8H362V122.3z M367,135.7h-5v23.4h-14.1V89.4h20.2
				c13.8,0,22,8.6,22,23.2c0,9.5-3.5,16.4-9.7,20.1l13.1,26.4h-15.4L367,135.7z"/>
			<polygon class="st1" points="437.3,145.7 437.3,159.1 400.4,159.1 400.4,89.4 436.3,89.4 436.3,102.9 414.6,102.9 414.6,117.3 
				434.4,117.3 434.4,130.2 414.6,130.2 414.6,145.7 			"/>
			<path class="st1" d="M443.4,138.8h14.5c0,5.6,2.8,8,7.3,8c4.7,0,7-2.7,7-6.2c0-11.5-27.3-12.9-27.3-34.1
				c0-10.6,7.5-18.4,20.3-18.4s20.6,7.7,20.6,20.5h-14.5c0-4.6-2.1-6.9-6.2-6.9c-3.7,0-5.9,2-5.9,5.2c0,10.9,27.7,11.6,27.7,33.8
				c0,11.4-8.1,19.8-21.9,19.8C451.8,160.5,443.4,152.8,443.4,138.8"/>
			<polygon class="st1" points="533.1,102.9 519.5,102.9 519.5,159.1 505,159.1 505,102.9 491.4,102.9 491.4,89.4 533.1,89.4 			"/>
			<path class="st1" d="M564.5,134.1l-1.6-8c-0.9-5-2.1-13.4-2.8-19.1h-0.4c-0.7,5.7-1.8,14.1-2.8,19.1l-1.6,8H564.5z M567.3,147.6
				h-14.7l-2.3,11.5h-14.6l16.7-69.7h15.1l16.7,69.7h-14.6L567.3,147.6z"/>
			<path class="st1" d="M588.5,136.7V89.4h14.7v47.3c0,6.4,2.5,9.9,7.5,9.9s7.5-3.5,7.5-9.9V89.4h14.7v47.3
				c0,14.7-8.3,23.6-22.2,23.6S588.5,151.4,588.5,136.7"/>
			<path class="st1" d="M657,122.3h5.9c5,0,7.7-3.4,7.7-9.7c0-6.4-2.7-9.8-7.7-9.8H657V122.3z M662,135.7h-5v23.4h-14.1V89.4h20.2
				c13.8,0,22,8.6,22,23.2c0,9.5-3.5,16.4-9.7,20.1l13.1,26.4h-15.4L662,135.7z"/>
			<path class="st1" d="M721.5,134.1l-1.6-8c-0.9-5-2.1-13.4-2.8-19.1h-0.4c-0.7,5.7-1.8,14.1-2.8,19.1l-1.6,8H721.5z M724.2,147.6
				h-14.7l-2.3,11.5h-14.6l16.7-69.7h15.1l16.7,69.7h-14.6L724.2,147.6z"/>
			<path class="st1" d="M792.3,89.4v69.7h-13.9l-11.7-27l-6.3-17l-0.3,0.3c1.1,8.8,1.8,21.8,1.8,29.5V159H748V89.4h13.9l13.2,30.2
				c1.7,4.4,3.3,9,5,13.3l0.3-0.3c-1.2-8.8-2-20.7-2-27.2v-16C778.4,89.4,792.3,89.4,792.3,89.4z"/>
			<polygon class="st1" points="799.7,89.4 799.7,102.9 813.4,102.9 813.4,159.1 827.9,159.1 827.9,102.9 841.5,102.9 841.5,89.4 
							"/>
		</g>
		<g>
			<path class="st1" d="M377.4,223.7l-1.6-8c-0.9-5-2.1-13.4-2.8-19.1h-0.4c-0.7,5.7-1.8,14.1-2.8,19.1l-1.6,8H377.4z M380.2,237.1
				h-14.7l-2.3,11.5h-14.6l16.7-69.7h15.1l16.7,69.7h-14.6L380.2,237.1z"/>
			<path class="st1" d="M472.7,179L457,248.6h-15l-5-23.3c-1.7-7.6-2.9-17.1-3.3-22.8h-0.4c-0.4,5.7-1.6,15.2-3.3,22.8l-5,23.3
				h-14.9L394.5,179h14.6l5.5,32.9c0.8,5.1,2.2,13.6,2.9,19.4h0.4c0.7-5.8,2.1-14.3,2.9-19.4l5.5-31.9H441l5.5,31.9
				c0.8,5.1,2.2,13.6,2.9,19.4h0.4c0.7-5.8,2.1-14.3,2.9-19.4l5.5-32.9H472.7z"/>
			<path class="st1" d="M498.9,223.7l-1.6-8c-0.9-5-2.1-13.4-2.8-19.1h-0.4c-0.7,5.7-1.8,14.1-2.8,19.1l-1.6,8H498.9z M501.7,237.1
				H487l-2.3,11.5h-14.6l16.7-69.7h15.1l16.7,69.7H504L501.7,237.1z"/>
			<path class="st1" d="M539.4,211.8h5.9c5,0,7.7-3.4,7.7-9.6c0-6.4-2.7-9.8-7.7-9.8h-5.9V211.8z M544.4,225.3h-5v23.4h-14.1V179
				h20.2c13.8,0,22,8.6,22,23.2c0,9.5-3.5,16.4-9.6,20.1l13.1,26.4h-15.4L544.4,225.3z"/>
			<path class="st1" d="M597.1,235.2c5.1,0,7.8-3.5,7.8-10.2v-23c0-6.4-2.7-9.7-7.8-9.7H592v42.8L597.1,235.2L597.1,235.2z
				 M577.8,179h19.1c14,0,22.3,8.6,22.3,23.1v23c0,14.8-8.2,23.6-22.1,23.6h-19.3V179z"/>
			<path class="st1" d="M625.5,228.3H640c0,5.6,2.8,8,7.3,8c4.7,0,7-2.7,7-6.2c0-11.5-27.3-12.9-27.3-34.1
				c0-10.6,7.5-18.4,20.3-18.4s20.6,7.7,20.6,20.5h-14.5c0-4.6-2.1-6.9-6.2-6.9c-3.7,0-5.9,2-5.9,5.2c0,10.9,27.7,11.6,27.7,33.8
				c0,11.4-8.1,19.8-21.9,19.8C633.8,250,625.5,242.4,625.5,228.3"/>
		</g>
	</g>
	<g>
		<polygon class="st1" points="140.8,124.5 89.7,161.6 109.2,101.6 58.2,64.4 121.3,64.4 140.8,4.4 160.3,64.4 223.4,64.4 
			172.4,101.6 191.9,161.6 		"/>
		<path class="st1" d="M164.8,248.6c0.5-0.7,1.1-1.6,1.1-3v-17.1c0-1.4-0.5-2.3-1.1-3l-0.3-0.4h8.2l3.5,9.1h0.2l2.9-9.1h8.7
			l-0.3,0.4c-0.5,0.7-1.1,1.6-1.1,3v17.1c0,1.4,0.5,2.3,1.1,3l0.3,0.4h-9.2l0.3-0.4c0.5-0.7,1.1-1.6,1.1-3v-11.3H180l-2.7,7.5h-2.6
			l-2.7-7.5h-0.2v11.3c0,1.4,0.5,2.3,1.1,3l0.3,0.4h-8.7L164.8,248.6z M93.5,249h12.1c4,0,6.2-2.1,6.2-5.8V231
			c0-3.7-2.2-5.8-6.2-5.8H93.5l0.3,0.4c0.5,0.7,1.1,1.6,1.1,3v17.1c0,1.4-0.5,2.3-1.1,3L93.5,249z M101.7,244.9v-15.7h1.7
			c1.4,0,1.6,0.8,1.6,1.4v12.8c0,0.6-0.2,1.4-1.6,1.4h-1.7V244.9z M114.9,249h7.8l-0.2-0.4c-0.4-1.1-0.5-1.7-0.4-2.9l0.2-1.8h4.1
			l0.3,2c0.1,0.8,0.1,1.7-0.4,2.6l-0.2,0.4h8.6l-0.3-0.5c-0.5-0.7-0.8-1.6-1.1-2.9l-2.7-16.9c-0.2-1.1-0.1-2.3,0.2-3.1l0.2-0.5
			h-12.6l0.2,0.5c0.4,0.8,0.5,1.9,0.2,3.3l-2.6,17.1c-0.1,0.7-0.4,1.5-0.8,2.3L114.9,249z M122.9,239.8l1.4-10.5h0.3l1.3,10.5H122.9
			z M137.2,249h8.7l-0.3-0.4c-0.5-0.7-1.1-1.6-1.1-3v-11.3h0.2l2.7,7.5h2.6l2.7-7.5h0.2v11.3c0,1.4-0.5,2.3-1.1,3l-0.3,0.4h9.2
			l-0.3-0.4c-0.5-0.7-1.1-1.6-1.1-3v-17.1c0-1.4,0.5-2.3,1.1-3l0.3-0.4H152l-2.9,9.1h-0.2l-3.5-9.1h-8.2l0.3,0.4
			c0.5,0.7,1.1,1.6,1.1,3v17.1c0,1.4-0.5,2.3-1.1,3L137.2,249z M0,217h30.3v-10.7l-0.7,0.6c-1.3,1-2.4,1.9-5.6,1.9h-8.1v-11.5h4.8
			c3.2,0,4.3,0.9,5.6,1.9l0.7,0.6v-13.2l-0.7,0.6c-1.3,1-2.5,1.9-5.6,1.9h-4.8v-11.7H24c3.2,0,4.3,0.9,5.6,1.9l0.7,0.6v-10.7H0
			l0.6,0.7c1,1.3,1.9,2.5,1.9,5.6v35c0,3.2-0.9,4.3-1.9,5.6L0,217z M34.3,182.4c0,5.3,1.4,9.2,5.5,12.3l5.5,4
			c4.4,3.2,5.2,4.3,5.2,6.5c0,2.7-2,3.9-5.8,3.9c-3,0-6-1-8.1-2.2l-2.2-1.2v11.9l1-0.3c1.2-0.4,2.6-0.6,4-0.6c2.4,0,5.3,0.5,8.4,0.5
			c10.3,0,15.6-5,15.6-13.4c0-4.6-1.8-9.3-6.6-12.8l-5.5-4c-3.2-2.4-4.3-3.5-4.3-5.7c0-2.5,1.3-4,5-4c2.7,0,5.1,0.9,7.2,2.2l2.1,1.2
			V169l-1,0.3c-0.9,0.2-2.2,0.4-3.6,0.4c-2.2,0-5-0.5-8.2-0.5C39.9,169.1,34.3,173.7,34.3,182.4 M65.1,180.3l0.8-0.6
			c1.4-1,3.5-2.3,6.9-2.3h1.9v32.9c0,3.2-0.7,4.8-1.9,5.9l-0.8,0.7h19l-0.6-0.7c-1.1-1.4-2.2-2.7-2.2-5.9v-32.9h1.9
			c3.5,0,5.6,1.3,6.9,2.3l0.8,0.6v-11H65.1V180.3z M101.1,217h18.3l-0.6-0.7c-1-1.3-1.9-2.5-1.9-5.6v-13h3l6.7,19.4H141
			c-1.2-1.4-1.9-2.9-2.7-4.9l-6.5-16.4c3-1.9,4.7-5.3,4.7-10.1v-4.6c0-7.5-4.4-11.7-12.1-11.7h-23.2l0.6,0.7c1,1.3,1.9,2.4,1.9,5.6
			v35c0,3.2-0.9,4.3-1.9,5.6L101.1,217z M116.9,189.5v-12h3c2.9,0,3.2,1.7,3.2,3v6.1c0,1.3-0.4,3-3.2,3h-3V189.5z M144.1,217h30.3
			v-10.7l-0.7,0.6c-1.3,1-2.5,1.9-5.6,1.9H160v-11.5h4.8c3.2,0,4.3,0.9,5.6,1.9l0.7,0.6v-13.2l-0.7,0.6c-1.3,1-2.4,1.9-5.6,1.9H160
			v-11.7h8.1c3.2,0,4.3,0.9,5.6,1.9l0.7,0.6v-10.7h-30.3l0.6,0.7c1,1.3,1.9,2.4,1.9,5.6v35c0,3.2-0.9,4.3-1.9,5.6L144.1,217z
			 M180.2,217h28.5v-10.9l-0.7,0.6c-1.3,1-2.9,2.2-6.1,2.2h-5.6v-33.2c0-3.2,0.9-4.3,1.9-5.6l0.6-0.7h-18.6l0.6,0.7
			c1,1.3,1.9,2.4,1.9,5.6v35c0,3.2-0.9,4.3-1.9,5.6L180.2,217z M211.5,217H240v-10.9l-0.7,0.6c-1.3,1-2.9,2.2-6.1,2.2h-5.6v-33.2
			c0-3.2,0.9-4.3,1.9-5.6l0.6-0.7h-18.6l0.6,0.7c1,1.3,1.9,2.4,1.9,5.6v35c0,3.2-0.9,4.3-1.9,5.6L211.5,217z M242.4,217h15.1
			l-0.3-0.8c-0.8-2.2-0.9-3.5-0.6-5.7l0.4-3.6h8.2l0.5,4.1c0.2,1.5,0.1,3.2-0.6,5.2l-0.3,0.8h16.8l-0.6-1c-0.9-1.4-1.7-3.3-2.1-5.9
			l-5.4-33.8c-0.4-2.3-0.2-4.4,0.3-6.1l0.3-0.9h-24.7l0.3,0.9c0.6,2,0.9,3.8,0.4,6.6l-5.3,34.1c-0.2,1.4-0.7,3-1.6,4.6L242.4,217z
			 M258.1,198.7l2.7-21h0.6l2.7,21H258.1z"/>
	</g>
</g>
</svg>
