<svg id="Group_13" data-name="Group 13" xmlns="http://www.w3.org/2000/svg" width="16" height="16" viewBox="0 0 16 16">
  <path id="Path_7" data-name="Path 7"
    d="M-385.52,8.723c2.136,0,2.389.008,3.233.047a4.429,4.429,0,0,1,1.485.276,2.481,2.481,0,0,1,.92.6,2.481,2.481,0,0,1,.6.92,4.43,4.43,0,0,1,.275,1.485c.038.844.047,1.1.047,3.233s-.008,2.389-.047,3.233A4.432,4.432,0,0,1-379.284,20a2.481,2.481,0,0,1-.6.92,2.481,2.481,0,0,1-.92.6,4.429,4.429,0,0,1-1.485.276c-.843.038-1.1.047-3.233.047s-2.389-.008-3.233-.047a4.431,4.431,0,0,1-1.485-.276,2.48,2.48,0,0,1-.92-.6,2.483,2.483,0,0,1-.6-.92,4.427,4.427,0,0,1-.275-1.485c-.038-.844-.047-1.1-.047-3.233s.008-2.389.047-3.233a4.425,4.425,0,0,1,.275-1.485,2.483,2.483,0,0,1,.6-.92,2.48,2.48,0,0,1,.92-.6,4.431,4.431,0,0,1,1.485-.276c.844-.038,1.1-.047,3.233-.047m0-1.441c-2.173,0-2.445.009-3.3.048a5.873,5.873,0,0,0-1.942.372,3.916,3.916,0,0,0-1.417.923,3.918,3.918,0,0,0-.923,1.417,5.871,5.871,0,0,0-.372,1.942c-.039.853-.048,1.126-.048,3.3s.009,2.445.048,3.3a5.873,5.873,0,0,0,.372,1.942,3.918,3.918,0,0,0,.923,1.417,3.916,3.916,0,0,0,1.417.923,5.873,5.873,0,0,0,1.942.372c.853.039,1.126.048,3.3.048s2.445-.009,3.3-.048a5.873,5.873,0,0,0,1.942-.372,3.918,3.918,0,0,0,1.417-.923,3.919,3.919,0,0,0,.923-1.417,5.877,5.877,0,0,0,.372-1.942c.039-.853.048-1.126.048-3.3s-.009-2.445-.048-3.3a5.875,5.875,0,0,0-.372-1.942,3.919,3.919,0,0,0-.923-1.417A3.918,3.918,0,0,0-380.28,7.7a5.873,5.873,0,0,0-1.942-.372c-.853-.039-1.125-.048-3.3-.048"
    transform="translate(393.52 -7.282)" fill="#ffffff" />
  <path id="Path_8" data-name="Path 8"
    d="M-377.97,18.724a4.108,4.108,0,0,0-4.108,4.108,4.108,4.108,0,0,0,4.108,4.108,4.108,4.108,0,0,0,4.108-4.108,4.108,4.108,0,0,0-4.108-4.108m0,6.775a2.667,2.667,0,0,1-2.667-2.667,2.667,2.667,0,0,1,2.667-2.667,2.667,2.667,0,0,1,2.667,2.667A2.667,2.667,0,0,1-377.97,25.5"
    transform="translate(385.97 -14.832)" fill="#ffffff" />
  <path id="Path_9" data-name="Path 9"
    d="M-358.348,16.385a.96.96,0,0,1-.96.96.96.96,0,0,1-.96-.96.96.96,0,0,1,.96-.96.96.96,0,0,1,.96.96"
    transform="translate(371.578 -12.655)" fill="#ffffff" />
</svg>