<svg id="Group_11" data-name="Group 11" xmlns="http://www.w3.org/2000/svg" width="15.548" height="12.635"
  viewBox="0 0 15.548 12.635">
  <path id="Path_5" data-name="Path 5"
    d="M-312.855,23.43a9.028,9.028,0,0,0,4.889,1.433,9.022,9.022,0,0,0,9.067-9.489,6.467,6.467,0,0,0,1.592-1.651,6.364,6.364,0,0,1-1.832.5,3.193,3.193,0,0,0,1.4-1.765,6.391,6.391,0,0,1-2.025.774,3.186,3.186,0,0,0-2.329-1.007,3.193,3.193,0,0,0-3.107,3.917,9.053,9.053,0,0,1-6.575-3.333,3.194,3.194,0,0,0,.987,4.259,3.178,3.178,0,0,1-1.445-.4,3.193,3.193,0,0,0,2.558,3.168,3.19,3.19,0,0,1-1.44.054,3.192,3.192,0,0,0,2.98,2.215A6.411,6.411,0,0,1-312.855,23.43Z"
    transform="translate(312.855 -12.228)" fill="#ffffff" />
</svg>