<?xml version="1.0" standalone="no"?>
<!DOCTYPE svg PUBLIC "-//W3C//DTD SVG 20010904//EN"
 "http://www.w3.org/TR/2001/REC-SVG-20010904/DTD/svg10.dtd">
<svg version="1.0" xmlns="http://www.w3.org/2000/svg"
 width="300.000000pt" height="300.000000pt" viewBox="0 0 300.000000 300.000000"
 preserveAspectRatio="xMidYMid meet">
<metadata>
Created by potrace 1.11, written by Peter Selinger 2001-2013
</metadata>
<g transform="translate(0.000000,300.000000) scale(0.100000,-0.100000)"
fill="#000000" stroke="none">
<path d="M1399 2585 c-56 -18 -131 -89 -146 -140 -28 -90 7 -182 91 -239 16
-11 10 -14 -53 -24 -323 -54 -615 -258 -727 -508 -34 -76 -64 -187 -64 -241
l0 -43 -79 0 c-85 0 -115 -14 -88 -42 12 -11 195 -14 1155 -13 865 0 1144 3
1153 12 6 6 9 19 6 27 -5 13 -23 16 -87 16 -44 0 -80 3 -81 8 0 4 -2 25 -5 47
-17 175 -87 317 -221 453 -139 141 -353 248 -566 282 l-77 13 32 22 c134 92
115 280 -35 357 -53 27 -147 33 -208 13z m151 -51 c14 -3 40 -17 58 -30 105
-80 74 -227 -57 -272 -132 -46 -272 63 -239 186 14 51 63 100 118 116 43 13
64 13 120 0z m205 -423 c371 -96 626 -357 659 -673 l5 -48 -930 0 -929 0 4 48
c29 335 323 612 731 687 106 20 359 12 460 -14z"/>
<path d="M333 1082 c-10 -11 -11 -17 -2 -28 10 -12 190 -14 1161 -14 1034 0
1149 2 1155 16 3 8 0 21 -6 27 -19 19 -2289 17 -2308 -1z"/>
<path d="M406 900 c-2 -3 -2 -47 -1 -98 0 -51 -3 -96 -7 -98 -4 -3 -8 -1 -8 4
0 17 -75 58 -112 61 -57 4 -113 -32 -143 -93 -14 -27 -25 -63 -25 -79 0 -156
159 -244 270 -151 27 23 30 24 30 7 0 -24 19 -43 42 -43 19 0 25 34 8 45 -6 4
-10 92 -10 230 0 220 0 224 -21 222 -11 -1 -22 -4 -23 -7z m-53 -196 c38 -28
54 -64 52 -115 -4 -74 -13 -96 -50 -119 -46 -28 -96 -28 -136 0 -58 42 -74
120 -40 189 34 65 117 87 174 45z"/>
<path d="M699 876 c-29 -48 -5 -60 32 -16 35 41 35 46 8 46 -14 0 -29 -12 -40
-30z"/>
<path d="M962 903 c-10 -4 -12 -55 -12 -230 1 -210 3 -226 21 -244 28 -28 103
-23 107 7 3 18 -1 20 -26 16 -17 -2 -33 2 -40 10 -8 10 -12 83 -14 228 -3 209
-6 225 -36 213z"/>
<path d="M1144 898 c-21 -33 -6 -72 22 -61 10 4 14 16 12 36 -3 33 -21 46 -34
25z"/>
<path d="M1655 901 c-3 -2 -5 -19 -5 -36 0 -29 3 -32 25 -27 20 3 25 10 25 36
0 25 -4 32 -20 32 -12 0 -23 -2 -25 -5z"/>
<path d="M634 754 c-130 -68 -138 -253 -14 -323 47 -26 107 -32 150 -14 41 16
80 51 80 70 0 18 -39 17 -46 -1 -10 -26 -72 -48 -114 -41 -53 9 -110 69 -110
116 0 5 64 9 151 9 l152 0 -6 39 c-7 55 -26 90 -70 125 -31 24 -49 31 -91 33
-32 1 -65 -5 -82 -13z m137 -41 c31 -18 75 -93 60 -103 -5 -3 -62 -5 -128 -4
l-118 1 2 29 c1 19 15 41 37 62 42 37 99 43 147 15z"/>
<path d="M1150 760 c-13 -7 -15 -38 -15 -177 0 -167 0 -168 23 -171 l22 -3 0
175 c0 96 -3 177 -8 180 -4 2 -14 1 -22 -4z"/>
<path d="M1379 761 c-106 -34 -154 -162 -97 -262 12 -23 35 -51 49 -62 36 -26
101 -37 150 -25 40 11 103 64 93 80 -9 14 -37 9 -59 -12 -46 -43 -126 -41
-171 4 -41 41 -50 135 -18 183 45 69 143 79 193 20 6 -8 21 -13 31 -10 23 6
24 8 10 34 -23 42 -120 69 -181 50z"/>
<path d="M1656 762 c-3 -3 -6 -83 -6 -179 l0 -173 25 0 25 0 0 174 c0 164 -1
174 -19 179 -11 3 -22 2 -25 -1z"/>
<path d="M1874 750 c-142 -72 -128 -283 22 -335 64 -22 145 0 185 49 33 41 -5
50 -47 11 -68 -63 -177 -29 -204 63 l-9 32 153 0 153 0 -7 43 c-18 123 -140
191 -246 137z m153 -47 c30 -27 59 -89 45 -96 -12 -5 -242 -1 -248 5 -3 3 2
22 10 42 31 75 134 101 193 49z"/>
<path d="M2203 763 c-19 -7 -18 -243 1 -286 21 -50 50 -70 100 -70 49 1 78 14
119 51 l27 26 0 -25 c0 -29 17 -49 42 -49 19 0 25 34 8 45 -6 4 -10 66 -10
155 0 121 -3 149 -15 153 -24 10 -29 -13 -31 -123 0 -62 -6 -115 -13 -128 -29
-54 -130 -82 -163 -44 -24 27 -28 52 -29 170 -1 110 -8 135 -36 125z"/>
<path d="M2566 761 c-2 -3 24 -44 59 -91 l63 -84 -64 -82 c-35 -46 -64 -85
-64 -88 0 -3 10 -6 23 -6 15 0 36 20 71 66 27 35 53 67 57 69 4 3 31 -27 60
-65 39 -51 60 -70 77 -70 28 0 28 -1 -49 101 l-58 76 64 84 c42 55 60 86 53
91 -20 11 -44 -9 -94 -77 -26 -36 -49 -65 -50 -65 -1 0 -25 31 -53 69 -46 62
-84 91 -95 72z"/>
</g>
</svg>
